<?xml version="1.0" encoding="UTF-8" standalone="no"?>
<!-- Generator: Adobe Illustrator 16.0.0, SVG Export Plug-In . SVG Version: 6.00 Build 0)  -->

<svg version="1.1"
  id="Layer_1"
  x="0px"
  y="0px"
  width="300"
  height="300"
  viewBox="0 0 300 300"
  enable-background="new 0 0 300 190"
  xml:space="preserve"
  sodipodi:docname="garn-logo.svg"
  inkscape:version="1.1.2 (0a00cf5339, 2022-02-04)"
  xmlns:inkscape="http://www.inkscape.org/namespaces/inkscape"
  xmlns:sodipodi="http://sodipodi.sourceforge.net/DTD/sodipodi-0.dtd"
  xmlns:xlink="http://www.w3.org/1999/xlink"
  xmlns="http://www.w3.org/2000/svg"
  xmlns:svg="http://www.w3.org/2000/svg">
  <defs id="defs133">

    <linearGradient inkscape:collect="always"
      id="linearGradient19915">
      <stop style="stop-color:#212;stop-opacity:1;"
        offset="0"
        id="stop19911" />
      <stop style="stop-color:#202;stop-opacity:0;"
        offset="1"
        id="stop19913" />
    </linearGradient>

    <linearGradient inkscape:collect="always"
      xlink:href="#linearGradient19915"
      id="linearGradient19919"
      x1="80.137001"
      y1="65.46064"
      x2="219.86099"
      y2="65.46064"
      gradientUnits="userSpaceOnUse" />
    <radialGradient inkscape:collect="always"
      xlink:href="#linearGradient19915"
      id="radialGradient21903"
      cx="151.18605"
      cy="150.15581"
      fx="151.18605"
      fy="150.15581"
      r="150.55624"
      gradientTransform="matrix(1,0,0,1.0010426,0,-0.15654968)"
      gradientUnits="userSpaceOnUse" />
  </defs>

  <g inkscape:groupmode="layer"
    id="layer5"
    inkscape:label="Fondo 1">
    <rect
      style="display:inline;mix-blend-mode:normal;fill:#000;fill-opacity:0.82893664;fill-rule:evenodd;stroke:none"
      id="rect22005"
      width="301.11249"
      height="301.42642"
      x="0.62980485"
      y="-0.55739725" />
  </g>
  <g inkscape:groupmode="layer"
    id="layer4"
    inkscape:label="Fondo"
    style="display:inline;mix-blend-mode:normal"
    sodipodi:insensitive="true">
    <rect style="fill:url(#radialGradient21903);fill-opacity:1;fill-rule:evenodd"
      id="rect331"
      width="301.11249"
      height="301.42642"
      x="0.62980485"
      y="-0.55739725" />
  </g>
  <g inkscape:groupmode="layer"
    id="layer2"
    inkscape:label="Logo"
    style="display:inline"
    sodipodi:insensitive="true">
    <g id="g126"
      transform="matrix(1.7133462,0,0,1.7133462,-102.17069,38.298875)"
      style="fill:url(#linearGradient19945);fill-opacity:1;stroke:none">

      <g id="g120"
        style="fill:url(#linearGradient19945);fill-opacity:1;stroke:none">

      </g>
      <g id="g14218"
        style="fill:#ffcc00;fill-opacity:1;stroke:none">
        <g opacity="0.96"
          id="g116"
          style="fill:#ffcc00;fill-opacity:1;stroke:none">
          <path
            d="m 174.002,28.075 23.841,23.896 c 5.75,5.96 9.296,14.064 9.296,23.001 0,18.3 -14.836,33.137 -33.137,33.137 -9.447,0 -17.966,-3.742 -24.002,-10.085 -6.037,6.343 -14.555,10.085 -24.001,10.085 -18.301,0 -33.137,-14.837 -33.137,-33.137 0,-8.937 3.544,-17.041 9.295,-23 L 125.999,28.076 150,51.971 174.002,28.075 M 150,97.972 157.121,90.849 150,83.729 142.878,90.85 150,97.972 m 24.031,-87.175 -8.654,8.615 -15.377,15.31 -15.377,-15.31 -8.653,-8.615 -8.625,8.644 -23.842,23.896 -0.072,0.072 -0.071,0.074 c -8.204,8.502 -12.723,19.685 -12.723,31.488 0,25.012 20.349,45.36 45.361,45.36 8.705,0 16.938,-2.328 24.001,-6.688 7.064,4.36 15.297,6.688 24.002,6.688 25.012,0 45.36,-20.349 45.36,-45.36 0,-11.801 -4.518,-22.983 -12.722,-31.488 l -0.071,-0.074 -0.073,-0.073 -23.841,-23.896 z"
            id="path114"
            style="fill:#ffcc00;fill-opacity:1;stroke:none" />
        </g>
        <path
          d="m 126.015,69.846 c 3.167,0 5.733,2.567 5.733,5.732 0,3.166 -2.566,5.732 -5.733,5.732 -3.166,0 -5.732,-2.566 -5.732,-5.732 0,-3.165 2.566,-5.732 5.732,-5.732 m 0,-12.224 c -9.901,0 -17.957,8.055 -17.957,17.957 0,9.902 8.055,17.957 17.957,17.957 9.902,0 17.957,-8.055 17.957,-17.957 0,-9.902 -8.055,-17.957 -17.957,-17.957 z"
          id="path118"
          style="display:inline;fill:#ffcc00;fill-opacity:1;stroke:none" />
        <g id="g124"
          style="fill:#ffcc00;fill-opacity:1;stroke:none">
          <path
            d="m 174.02,69.846 c 3.166,0 5.733,2.567 5.733,5.732 0,3.166 -2.567,5.732 -5.733,5.732 -3.166,0 -5.732,-2.566 -5.732,-5.732 -0.001,-3.165 2.566,-5.732 5.732,-5.732 m 0,-12.224 c -9.901,0 -17.956,8.055 -17.956,17.957 0,9.902 8.055,17.957 17.956,17.957 9.901,0 17.957,-8.055 17.957,-17.957 0,-9.902 -8.056,-17.957 -17.957,-17.957 z"
            id="path122"
            style="fill:#ffcc00;fill-opacity:1;stroke:none" />
        </g>
      </g>
    </g>
  </g>
</svg>