<?xml version="1.0" encoding="UTF-8" standalone="no"?>
<!-- Generator: Adobe Illustrator 16.0.0, SVG Export Plug-In . SVG Version: 6.00 Build 0)  -->

<svg
   version="1.1"
   id="Layer_1"
   x="0px"
   y="0px"
   width="147"
   height="117"
   viewBox="0 0 147 117"
   enable-background="new 0 0 300 190"
   xml:space="preserve"
   sodipodi:docname="favicon.svg"
   inkscape:version="1.1.2 (1:1.1+202202050942+0a00cf5339)"
   xmlns:inkscape="http://www.inkscape.org/namespaces/inkscape"
   xmlns:sodipodi="http://sodipodi.sourceforge.net/DTD/sodipodi-0.dtd"
   xmlns="http://www.w3.org/2000/svg"
   xmlns:svg="http://www.w3.org/2000/svg"><defs
   id="defs21" /><sodipodi:namedview
   id="namedview19"
   pagecolor="#ffffff"
   bordercolor="#666666"
   borderopacity="1.0"
   inkscape:pageshadow="2"
   inkscape:pageopacity="0.0"
   inkscape:pagecheckerboard="0"
   showgrid="false"
   width="299px"
   inkscape:zoom="2.2184211"
   inkscape:cx="73.475682"
   inkscape:cy="70.320285"
   inkscape:window-width="1920"
   inkscape:window-height="1015"
   inkscape:window-x="0"
   inkscape:window-y="0"
   inkscape:window-maximized="1"
   inkscape:current-layer="g16"
   />
<g
   id="g16">
   <rect width="100%" height="100%" fill="#333333"/>
	<g
   id="g14"
   transform="translate(-76.710179,-6.9944624)">
		<g
   opacity="0.96"
   id="g4">
			<path
   fill="#ffcc00"
   d="m 174.002,28.075 23.841,23.896 c 5.75,5.96 9.296,14.064 9.296,23.001 0,18.3 -14.836,33.137 -33.137,33.137 -9.447,0 -17.966,-3.742 -24.002,-10.085 -6.037,6.343 -14.555,10.085 -24.001,10.085 -18.301,0 -33.137,-14.837 -33.137,-33.137 0,-8.937 3.544,-17.041 9.295,-23 L 125.999,28.076 150,51.971 174.002,28.075 M 150,97.972 157.121,90.849 150,83.729 142.878,90.85 150,97.972 m 24.031,-87.175 -8.654,8.615 -15.377,15.31 -15.377,-15.31 -8.653,-8.615 -8.625,8.644 -23.842,23.896 -0.072,0.072 -0.071,0.074 c -8.204,8.502 -12.723,19.685 -12.723,31.488 0,25.012 20.349,45.36 45.361,45.36 8.705,0 16.938,-2.328 24.001,-6.688 7.064,4.36 15.297,6.688 24.002,6.688 25.012,0 45.36,-20.349 45.36,-45.36 0,-11.801 -4.518,-22.983 -12.722,-31.488 l -0.071,-0.074 -0.073,-0.073 -23.841,-23.896 z"
   id="path2" />
		</g>
		<g
   id="g8">
			<path
   fill="#ffcc00"
   d="m 126.015,69.846 c 3.167,0 5.733,2.567 5.733,5.732 0,3.166 -2.566,5.732 -5.733,5.732 -3.166,0 -5.732,-2.566 -5.732,-5.732 0,-3.165 2.566,-5.732 5.732,-5.732 m 0,-12.224 c -9.901,0 -17.957,8.055 -17.957,17.957 0,9.902 8.055,17.957 17.957,17.957 9.902,0 17.957,-8.055 17.957,-17.957 0,-9.902 -8.055,-17.957 -17.957,-17.957 z"
   id="path6" />
		</g>
		<g
   id="g12">
			<path
   fill="#ffcc00"
   d="m 174.02,69.846 c 3.166,0 5.733,2.567 5.733,5.732 0,3.166 -2.567,5.732 -5.733,5.732 -3.166,0 -5.732,-2.566 -5.732,-5.732 -0.001,-3.165 2.566,-5.732 5.732,-5.732 m 0,-12.224 c -9.901,0 -17.956,8.055 -17.956,17.957 0,9.902 8.055,17.957 17.956,17.957 9.901,0 17.957,-8.055 17.957,-17.957 0,-9.902 -8.056,-17.957 -17.957,-17.957 z"
   id="path10" />
		</g>
	</g>
</g>
</svg>
